<?xml version="1.0" standalone="no"?><!DOCTYPE svg PUBLIC "-//W3C//DTD SVG 1.1//EN" "http://www.w3.org/Graphics/SVG/1.1/DTD/svg11.dtd"><svg t="1689131318647" class="icon" viewBox="0 0 1024 1024" version="1.1" xmlns="http://www.w3.org/2000/svg" p-id="7136" xmlns:xlink="http://www.w3.org/1999/xlink" width="200" height="200"><path d="M512 555.885714c136.533333 0 248.685714-112.152381 248.685714-248.685714s-112.152381-248.685714-248.685714-248.685714-248.685714 112.152381-248.685714 248.685714c0 73.142857 34.133333 141.409524 82.895238 185.295238-170.666667 68.266667-292.571429 234.057143-292.571429 424.228572v48.761904h458.361905v-97.523809H156.038095c24.380952-175.542857 175.542857-312.07619 355.961905-312.076191zM360.838095 307.2c0-82.895238 68.266667-151.161905 151.161905-151.161905s151.161905 68.266667 151.161905 151.161905-68.266667 151.161905-151.161905 151.161905S360.838095 390.095238 360.838095 307.2zM712.021333 967.582476l0.341334-97.523809 258.438095 0.877714-0.341333 97.523809zM710.363429 652.336762l0.341333-97.52381 258.438095 0.877715-0.341333 97.523809z" p-id="7137"></path><path d="M600.30781 808.082286l0.243809-97.52381 370.590476 0.877714-0.243809 97.52381z" p-id="7138"></path></svg>