<?xml version="1.0" standalone="no"?><!DOCTYPE svg PUBLIC "-//W3C//DTD SVG 1.1//EN" "http://www.w3.org/Graphics/SVG/1.1/DTD/svg11.dtd"><svg t="1689144504533" class="icon" viewBox="0 0 1024 1024" version="1.1" xmlns="http://www.w3.org/2000/svg" p-id="4016" xmlns:xlink="http://www.w3.org/1999/xlink" width="200" height="200"><path d="M512 1004.495238C238.933333 1004.495238 19.504762 785.066667 19.504762 512S238.933333 19.504762 512 19.504762s492.495238 219.428571 492.495238 492.495238h-97.523809c0-219.428571-175.542857-394.971429-394.971429-394.971429S117.028571 292.571429 117.028571 512s175.542857 394.971429 394.971429 394.971429c19.504762 0 43.885714 0 63.390476-4.876191l14.628572 97.52381c-24.380952 4.87619-53.638095 4.87619-78.019048 4.87619z" p-id="4017"></path><path d="M307.2 770.438095V253.561905h195.047619c102.4 0 170.666667 58.514286 170.666667 156.038095s-68.266667 156.038095-175.542857 156.038095H394.971429v204.8H307.2z m190.171429-282.819047c58.514286 0 82.895238-24.380952 82.895238-73.142858 0-63.390476-53.638095-73.142857-82.895238-73.142857H394.971429v146.285715h102.4zM677.790476 877.714286h292.571429v97.523809h-292.571429zM677.790476 585.142857h292.571429v97.52381h-292.571429zM677.790476 731.428571h292.571429v97.52381h-292.571429z" p-id="4018"></path></svg>