<?xml version="1.0" standalone="no"?><!DOCTYPE svg PUBLIC "-//W3C//DTD SVG 1.1//EN" "http://www.w3.org/Graphics/SVG/1.1/DTD/svg11.dtd"><svg t="1689066357854" class="icon" viewBox="0 0 1024 1024" version="1.1" xmlns="http://www.w3.org/2000/svg" p-id="15095" xmlns:xlink="http://www.w3.org/1999/xlink" width="200" height="200"><path d="M819.2 585.142857h-156.038095v394.971429h87.771428v-136.533334h68.266667c87.771429 0 141.409524-53.638095 141.409524-131.657142-4.87619-78.019048-58.514286-126.780952-141.409524-126.780953z m-4.87619 175.542857h-68.266667v-92.647619h68.266667c34.133333 0 53.638095 14.628571 53.638095 48.761905 0 29.257143-14.628571 43.885714-53.638095 43.885714z" p-id="15096"></path><path d="M760.685714 121.904762V43.885714H263.314286v73.142857h-195.047619V975.238095H585.142857v-97.523809H160.914286V219.428571h97.523809v78.019048h497.371429V219.428571h97.523809v312.076191h97.52381V121.904762h-190.171429z m-97.523809 78.019048H360.838095V141.409524h302.32381v58.514286z" p-id="15097"></path><path d="M263.314286 414.47619h502.247619v97.52381H263.314286zM263.314286 624.152381H585.142857v97.523809H263.314286z" p-id="15098"></path></svg>